<svg width="41" height="25" viewBox="0 0 41 25" fill="none" xmlns="http://www.w3.org/2000/svg">
<path d="M0.4375 16.6406L3.29688 16.3906C3.43229 17.5365 3.74479 18.4792 4.23438 19.2188C4.73438 19.9479 5.50521 20.5417 6.54688 21C7.58854 21.4479 8.76042 21.6719 10.0625 21.6719C11.2188 21.6719 12.2396 21.5 13.125 21.1562C14.0104 20.8125 14.6667 20.3438 15.0938 19.75C15.5312 19.1458 15.75 18.4896 15.75 17.7812C15.75 17.0625 15.5417 16.4375 15.125 15.9062C14.7083 15.3646 14.0208 14.9115 13.0625 14.5469C12.4479 14.3073 11.0885 13.9375 8.98438 13.4375C6.88021 12.9271 5.40625 12.4479 4.5625 12C3.46875 11.4271 2.65104 10.7188 2.10938 9.875C1.57812 9.02083 1.3125 8.06771 1.3125 7.01562C1.3125 5.85938 1.64062 4.78125 2.29688 3.78125C2.95312 2.77083 3.91146 2.00521 5.17188 1.48438C6.43229 0.963542 7.83333 0.703125 9.375 0.703125C11.0729 0.703125 12.5677 0.979167 13.8594 1.53125C15.1615 2.07292 16.1615 2.875 16.8594 3.9375C17.5573 5 17.9323 6.20312 17.9844 7.54688L15.0781 7.76562C14.9219 6.31771 14.3906 5.22396 13.4844 4.48438C12.5885 3.74479 11.2604 3.375 9.5 3.375C7.66667 3.375 6.32812 3.71354 5.48438 4.39062C4.65104 5.05729 4.23438 5.86458 4.23438 6.8125C4.23438 7.63542 4.53125 8.3125 5.125 8.84375C5.70833 9.375 7.22917 9.92188 9.6875 10.4844C12.1562 11.0365 13.849 11.5208 14.7656 11.9375C16.099 12.5521 17.0833 13.3333 17.7188 14.2812C18.3542 15.2188 18.6719 16.3021 18.6719 17.5312C18.6719 18.75 18.3229 19.901 17.625 20.9844C16.9271 22.0573 15.9219 22.8958 14.6094 23.5C13.3073 24.0938 11.8385 24.3906 10.2031 24.3906C8.13021 24.3906 6.39062 24.0885 4.98438 23.4844C3.58854 22.8802 2.48958 21.974 1.6875 20.7656C0.895833 19.5469 0.479167 18.1719 0.4375 16.6406Z" fill="white"/>
<path d="M22.8125 24V1.09375H31.4531C32.974 1.09375 34.1354 1.16667 34.9375 1.3125C36.0625 1.5 37.0052 1.85938 37.7656 2.39062C38.526 2.91146 39.1354 3.64583 39.5938 4.59375C40.0625 5.54167 40.2969 6.58333 40.2969 7.71875C40.2969 9.66667 39.6771 11.3177 38.4375 12.6719C37.1979 14.0156 34.9583 14.6875 31.7188 14.6875H25.8438V24H22.8125ZM25.8438 11.9844H31.7656C33.724 11.9844 35.1146 11.6198 35.9375 10.8906C36.7604 10.1615 37.1719 9.13542 37.1719 7.8125C37.1719 6.85417 36.9271 6.03646 36.4375 5.35938C35.9583 4.67188 35.3229 4.21875 34.5312 4C34.0208 3.86458 33.0781 3.79688 31.7031 3.79688H25.8438V11.9844Z" fill="#FF0505"/>
</svg>
